<?xml version="1.0" standalone="no"?><!DOCTYPE svg PUBLIC "-//W3C//DTD SVG 1.1//EN" "http://www.w3.org/Graphics/SVG/1.1/DTD/svg11.dtd"><svg t="1584785270488" class="icon" viewBox="0 0 1024 1024" version="1.1" xmlns="http://www.w3.org/2000/svg" p-id="3812" xmlns:xlink="http://www.w3.org/1999/xlink" width="200" height="200"><defs><style type="text/css"></style></defs><path d="M422.912 404.672c0 46.72-37.888 84.672-84.672 84.672-46.656 0-84.672-37.888-84.672-84.672C253.568 357.824 291.584 320 338.24 320 385.024 320 422.912 357.824 422.912 404.672zM820.544 768c0 0-34.944-274.432-139.648-274.432-104.768 0-139.712 134.912-209.408 134.912-69.952 0-69.952-33.728-139.776-33.728C261.888 594.752 192 768 192 768L820.544 768 820.544 768zM896 128 128 128l0 704 768 0L896 128M896 64c35.392 0 64 28.672 64 64l0 704c0 35.392-28.608 64-64 64L128 896c-35.328 0-64-28.608-64-64L64 128c0-35.328 28.672-64 64-64L896 64 896 64z" p-id="3813" fill="#dbdbdb"></path></svg>